<mxfile host="app.diagrams.net" modified="2020-05-10T01:08:39.847Z" agent="5.0 (Windows NT 10.0; Win64; x64) AppleWebKit/537.36 (KHTML, like Gecko) Chrome/81.0.4044.138 Safari/537.36" etag="Dbi4hAz-MHr1c1507wSd" version="13.0.9" type="github">
  <diagram id="LB_8y4WnZ8luROFJJqW4" name="Page-1">
    <mxGraphModel dx="1673" dy="2065" grid="1" gridSize="10" guides="1" tooltips="1" connect="1" arrows="1" fold="1" page="1" pageScale="1" pageWidth="1654" pageHeight="1169" math="0" shadow="0">
      <root>
        <mxCell id="0" />
        <mxCell id="1" parent="0" />
        <mxCell id="ET-FOYwZOfEWecPwwmMv-3" value="" style="rounded=0;whiteSpace=wrap;html=1;" parent="1" vertex="1">
          <mxGeometry x="870" y="85" width="360" height="500" as="geometry" />
        </mxCell>
        <mxCell id="mE1LJT338FbpaoRDe8dP-4" value="" style="group" vertex="1" connectable="0" parent="1">
          <mxGeometry x="300" y="330" width="80" height="112" as="geometry" />
        </mxCell>
        <mxCell id="mE1LJT338FbpaoRDe8dP-2" value="" style="outlineConnect=0;dashed=0;verticalLabelPosition=bottom;verticalAlign=top;align=center;html=1;shape=mxgraph.aws3.classic_load_balancer;fillColor=#F58534;gradientColor=none;" vertex="1" parent="mE1LJT338FbpaoRDe8dP-4">
          <mxGeometry x="5.5" width="69" height="72" as="geometry" />
        </mxCell>
        <mxCell id="mE1LJT338FbpaoRDe8dP-3" value="&lt;span style=&quot;color: rgb(35 , 47 , 62) ; font-size: 10px ; font-weight: 700&quot;&gt;Network Load&lt;br&gt;Balancer&lt;/span&gt;" style="text;html=1;align=center;verticalAlign=middle;resizable=0;points=[];autosize=1;" vertex="1" parent="mE1LJT338FbpaoRDe8dP-4">
          <mxGeometry y="72" width="80" height="40" as="geometry" />
        </mxCell>
        <mxCell id="mE1LJT338FbpaoRDe8dP-17" value="" style="endArrow=classic;html=1;" edge="1" parent="mE1LJT338FbpaoRDe8dP-4">
          <mxGeometry width="50" height="50" relative="1" as="geometry">
            <mxPoint x="90" y="40" as="sourcePoint" />
            <mxPoint x="190" y="40" as="targetPoint" />
          </mxGeometry>
        </mxCell>
        <mxCell id="ET-FOYwZOfEWecPwwmMv-4" value="Untitled Layer" parent="0" />
        <mxCell id="ET-FOYwZOfEWecPwwmMv-5" value="Private Container Network" style="text;html=1;strokeColor=none;fillColor=none;align=center;verticalAlign=middle;whiteSpace=wrap;rounded=0;labelBackgroundColor=white;fontStyle=1;fontSize=20;" parent="ET-FOYwZOfEWecPwwmMv-4" vertex="1">
          <mxGeometry x="870" y="90" width="360" height="60" as="geometry" />
        </mxCell>
        <mxCell id="ET-FOYwZOfEWecPwwmMv-7" value="" style="aspect=fixed;html=1;points=[];align=center;image;fontSize=12;image=img/lib/mscae/MD_snapshot.svg;labelBackgroundColor=white;" parent="ET-FOYwZOfEWecPwwmMv-4" vertex="1">
          <mxGeometry x="570" y="-145.25" width="89.05" height="74.8" as="geometry" />
        </mxCell>
        <mxCell id="ET-FOYwZOfEWecPwwmMv-9" value="Server Images/ Snapshoots" style="text;html=1;strokeColor=none;fillColor=none;align=center;verticalAlign=middle;whiteSpace=wrap;rounded=0;labelBackgroundColor=none;fontSize=11;fontStyle=1" parent="ET-FOYwZOfEWecPwwmMv-4" vertex="1">
          <mxGeometry x="559.53" y="-70.44999999999999" width="110" height="30" as="geometry" />
        </mxCell>
        <mxCell id="ET-FOYwZOfEWecPwwmMv-16" value="Manged? SQL" style="text;html=1;strokeColor=none;fillColor=none;align=center;verticalAlign=middle;whiteSpace=wrap;rounded=0;labelBackgroundColor=none;fontSize=11;fontStyle=1" parent="ET-FOYwZOfEWecPwwmMv-4" vertex="1">
          <mxGeometry x="1480" y="307.74" width="110" height="27.26" as="geometry" />
        </mxCell>
        <mxCell id="ET-FOYwZOfEWecPwwmMv-17" value="" style="outlineConnect=0;fontColor=#232F3E;gradientColor=none;fillColor=#3334B9;strokeColor=none;dashed=0;verticalLabelPosition=bottom;verticalAlign=top;align=center;html=1;fontSize=12;fontStyle=0;aspect=fixed;pointerEvents=1;shape=mxgraph.aws4.rds_sql_server_instance_alt;labelBackgroundColor=none;" parent="ET-FOYwZOfEWecPwwmMv-4" vertex="1">
          <mxGeometry x="1485" y="335" width="100" height="100" as="geometry" />
        </mxCell>
        <mxCell id="ET-FOYwZOfEWecPwwmMv-18" value="" style="group;labelBackgroundColor=none;fontSize=11;html=1;" parent="ET-FOYwZOfEWecPwwmMv-4" vertex="1" connectable="0">
          <mxGeometry x="1160" y="-180" width="220" height="160" as="geometry" />
        </mxCell>
        <mxCell id="ET-FOYwZOfEWecPwwmMv-19" value="" style="rounded=1;whiteSpace=wrap;html=1;" parent="ET-FOYwZOfEWecPwwmMv-18" vertex="1">
          <mxGeometry width="220" height="160" as="geometry" />
        </mxCell>
        <mxCell id="ET-FOYwZOfEWecPwwmMv-20" value="Server Management" style="text;html=1;strokeColor=none;fillColor=none;align=center;verticalAlign=middle;whiteSpace=wrap;rounded=0;fontStyle=1;fontSize=13;" parent="ET-FOYwZOfEWecPwwmMv-18" vertex="1">
          <mxGeometry width="220" height="35.56" as="geometry" />
        </mxCell>
        <mxCell id="ET-FOYwZOfEWecPwwmMv-22" value="" style="endArrow=none;html=1;fontSize=11;entryX=1;entryY=0.25;entryDx=0;entryDy=0;exitX=0;exitY=0.25;exitDx=0;exitDy=0;" parent="ET-FOYwZOfEWecPwwmMv-18" source="ET-FOYwZOfEWecPwwmMv-19" target="ET-FOYwZOfEWecPwwmMv-19" edge="1">
          <mxGeometry width="50" height="50" relative="1" as="geometry">
            <mxPoint x="-40" y="115.55555555555556" as="sourcePoint" />
            <mxPoint x="10" y="71.1111111111111" as="targetPoint" />
          </mxGeometry>
        </mxCell>
        <mxCell id="ET-FOYwZOfEWecPwwmMv-24" value="" style="aspect=fixed;html=1;points=[];align=center;image;fontSize=12;image=img/lib/mscae/Docker.svg;labelBackgroundColor=none;" parent="ET-FOYwZOfEWecPwwmMv-18" vertex="1">
          <mxGeometry x="80" y="49.42857142857143" width="50" height="41" as="geometry" />
        </mxCell>
        <mxCell id="ET-FOYwZOfEWecPwwmMv-25" value="&lt;b&gt;Azure CLI + Python&lt;/b&gt;" style="text;html=1;strokeColor=none;fillColor=none;align=center;verticalAlign=middle;whiteSpace=wrap;rounded=0;labelBackgroundColor=none;fontSize=11;" parent="ET-FOYwZOfEWecPwwmMv-18" vertex="1">
          <mxGeometry x="10" y="99.85714285714286" width="200" height="22.857142857142854" as="geometry" />
        </mxCell>
        <mxCell id="ET-FOYwZOfEWecPwwmMv-51" value="&lt;span&gt;Monitors current services and scale accordingly&lt;/span&gt;" style="text;html=1;strokeColor=none;fillColor=none;align=center;verticalAlign=middle;whiteSpace=wrap;rounded=0;labelBackgroundColor=none;fontSize=11;fontStyle=0" parent="ET-FOYwZOfEWecPwwmMv-18" vertex="1">
          <mxGeometry x="10" y="121.71428571428571" width="200" height="34.28571428571428" as="geometry" />
        </mxCell>
        <mxCell id="ET-FOYwZOfEWecPwwmMv-27" value="" style="group" parent="ET-FOYwZOfEWecPwwmMv-4" vertex="1" connectable="0">
          <mxGeometry x="1002" y="-170" width="80" height="112.5" as="geometry" />
        </mxCell>
        <mxCell id="ET-FOYwZOfEWecPwwmMv-23" value="" style="outlineConnect=0;dashed=0;verticalLabelPosition=bottom;verticalAlign=top;align=center;html=1;shape=mxgraph.aws3.cli;fillColor=#444444;gradientColor=none;labelBackgroundColor=none;fontSize=11;" parent="ET-FOYwZOfEWecPwwmMv-27" vertex="1">
          <mxGeometry width="72" height="82.5" as="geometry" />
        </mxCell>
        <mxCell id="ET-FOYwZOfEWecPwwmMv-26" value="&lt;b&gt;Azure CLI&lt;/b&gt;" style="text;html=1;strokeColor=none;fillColor=none;align=center;verticalAlign=middle;whiteSpace=wrap;rounded=0;labelBackgroundColor=none;fontSize=11;" parent="ET-FOYwZOfEWecPwwmMv-27" vertex="1">
          <mxGeometry y="92.5" width="80" height="20" as="geometry" />
        </mxCell>
        <mxCell id="mE1LJT338FbpaoRDe8dP-10" value="" style="group;labelBackgroundColor=none;fontSize=11;html=1;" vertex="1" connectable="0" parent="ET-FOYwZOfEWecPwwmMv-4">
          <mxGeometry x="500" y="240" width="220" height="340" as="geometry" />
        </mxCell>
        <mxCell id="mE1LJT338FbpaoRDe8dP-11" value="" style="rounded=1;whiteSpace=wrap;html=1;" vertex="1" parent="mE1LJT338FbpaoRDe8dP-10">
          <mxGeometry width="220" height="340" as="geometry" />
        </mxCell>
        <mxCell id="mE1LJT338FbpaoRDe8dP-12" value="VM - Proxy &amp;amp; Auth" style="text;html=1;strokeColor=none;fillColor=none;align=center;verticalAlign=middle;whiteSpace=wrap;rounded=0;fontStyle=1;fontSize=13;" vertex="1" parent="mE1LJT338FbpaoRDe8dP-10">
          <mxGeometry width="220" height="45.33333333333333" as="geometry" />
        </mxCell>
        <mxCell id="mE1LJT338FbpaoRDe8dP-13" value="" style="endArrow=none;html=1;fontSize=11;entryX=1;entryY=1;entryDx=0;entryDy=0;exitX=0;exitY=1;exitDx=0;exitDy=0;" edge="1" parent="mE1LJT338FbpaoRDe8dP-10" source="mE1LJT338FbpaoRDe8dP-12" target="mE1LJT338FbpaoRDe8dP-12">
          <mxGeometry width="50" height="50" relative="1" as="geometry">
            <mxPoint x="-40" y="245.55555555555554" as="sourcePoint" />
            <mxPoint x="10" y="151.1111111111111" as="targetPoint" />
          </mxGeometry>
        </mxCell>
        <mxCell id="mE1LJT338FbpaoRDe8dP-14" value="" style="aspect=fixed;html=1;points=[];align=center;image;fontSize=12;image=img/lib/mscae/Docker.svg;labelBackgroundColor=none;" vertex="1" parent="mE1LJT338FbpaoRDe8dP-10">
          <mxGeometry x="85" y="45.33029761904761" width="50" height="41" as="geometry" />
        </mxCell>
        <mxCell id="mE1LJT338FbpaoRDe8dP-15" value="&lt;b style=&quot;font-size: 12px;&quot;&gt;Reverse Proxy&lt;/b&gt;" style="text;html=1;strokeColor=none;fillColor=none;align=center;verticalAlign=middle;whiteSpace=wrap;rounded=0;labelBackgroundColor=none;fontSize=12;" vertex="1" parent="mE1LJT338FbpaoRDe8dP-10">
          <mxGeometry x="10" y="96.33333333333333" width="200" height="27.03" as="geometry" />
        </mxCell>
        <mxCell id="mE1LJT338FbpaoRDe8dP-39" style="edgeStyle=orthogonalEdgeStyle;rounded=0;orthogonalLoop=1;jettySize=auto;html=1;exitX=0.5;exitY=0;exitDx=0;exitDy=0;entryX=0.5;entryY=0.839;entryDx=0;entryDy=0;entryPerimeter=0;startArrow=none;startFill=0;" edge="1" parent="mE1LJT338FbpaoRDe8dP-10" source="mE1LJT338FbpaoRDe8dP-16" target="mE1LJT338FbpaoRDe8dP-15">
          <mxGeometry relative="1" as="geometry" />
        </mxCell>
        <mxCell id="mE1LJT338FbpaoRDe8dP-16" value="Connect client to correct instance of a service" style="text;html=1;strokeColor=none;fillColor=none;align=center;verticalAlign=middle;whiteSpace=wrap;rounded=0;labelBackgroundColor=none;fontSize=11;fontStyle=0" vertex="1" parent="mE1LJT338FbpaoRDe8dP-10">
          <mxGeometry x="10" y="119" width="200" height="42.82866666666666" as="geometry" />
        </mxCell>
        <mxCell id="mE1LJT338FbpaoRDe8dP-43" value="" style="endArrow=none;html=1;fontSize=12;exitX=0;exitY=1;exitDx=0;exitDy=0;entryX=1;entryY=1;entryDx=0;entryDy=0;dashed=1;" edge="1" parent="mE1LJT338FbpaoRDe8dP-10">
          <mxGeometry width="50" height="50" relative="1" as="geometry">
            <mxPoint x="10" y="226.66666666666666" as="sourcePoint" />
            <mxPoint x="209.99999999999977" y="226.66666666666666" as="targetPoint" />
          </mxGeometry>
        </mxCell>
        <mxCell id="mE1LJT338FbpaoRDe8dP-49" value="" style="endArrow=none;html=1;fontSize=11;exitX=0.5;exitY=1;exitDx=0;exitDy=0;entryX=0.5;entryY=1;entryDx=0;entryDy=0;" edge="1" parent="mE1LJT338FbpaoRDe8dP-10" source="mE1LJT338FbpaoRDe8dP-11">
          <mxGeometry width="50" height="50" relative="1" as="geometry">
            <mxPoint x="90" y="238" as="sourcePoint" />
            <mxPoint x="110" y="226.66666666666666" as="targetPoint" />
          </mxGeometry>
        </mxCell>
        <mxCell id="mE1LJT338FbpaoRDe8dP-138" value="" style="endArrow=none;html=1;fontSize=12;exitX=0;exitY=1;exitDx=0;exitDy=0;entryX=1;entryY=1;entryDx=0;entryDy=0;dashed=1;" edge="1" parent="mE1LJT338FbpaoRDe8dP-10">
          <mxGeometry width="50" height="50" relative="1" as="geometry">
            <mxPoint x="10" y="161.8286666666667" as="sourcePoint" />
            <mxPoint x="209.99999999999977" y="161.8286666666667" as="targetPoint" />
          </mxGeometry>
        </mxCell>
        <mxCell id="mE1LJT338FbpaoRDe8dP-76" value="&lt;span style=&quot;font-size: 11px;&quot;&gt;Docker Private Network&lt;/span&gt;" style="text;html=1;strokeColor=none;fillColor=none;align=center;verticalAlign=middle;whiteSpace=wrap;rounded=0;fontSize=11;fontStyle=0" vertex="1" parent="mE1LJT338FbpaoRDe8dP-10">
          <mxGeometry x="50" y="161.82866666666666" width="135.48" height="19.50466666666667" as="geometry" />
        </mxCell>
        <mxCell id="mE1LJT338FbpaoRDe8dP-139" value="" style="verticalLabelPosition=bottom;html=1;verticalAlign=top;align=center;strokeColor=none;fillColor=#00BEF2;shape=mxgraph.azure.load_balancer_generic;pointerEvents=1;labelBackgroundColor=white;rotation=0;" vertex="1" parent="mE1LJT338FbpaoRDe8dP-10">
          <mxGeometry x="95" y="181.33333333333331" width="30" height="45.33333333333333" as="geometry" />
        </mxCell>
        <mxCell id="mE1LJT338FbpaoRDe8dP-140" value="&lt;b&gt;Authorization&lt;/b&gt;" style="text;html=1;strokeColor=none;fillColor=none;align=center;verticalAlign=middle;whiteSpace=wrap;rounded=0;fontSize=11;" vertex="1" parent="mE1LJT338FbpaoRDe8dP-10">
          <mxGeometry x="10" y="238" width="90" height="22.666666666666664" as="geometry" />
        </mxCell>
        <mxCell id="mE1LJT338FbpaoRDe8dP-141" value="&lt;b&gt;Lobby-Directory&lt;/b&gt;" style="text;html=1;strokeColor=none;fillColor=none;align=center;verticalAlign=middle;whiteSpace=wrap;rounded=0;fontSize=11;" vertex="1" parent="mE1LJT338FbpaoRDe8dP-10">
          <mxGeometry x="120" y="238" width="90" height="22.666666666666664" as="geometry" />
        </mxCell>
        <mxCell id="mE1LJT338FbpaoRDe8dP-142" value="Authorizes clients into network" style="text;html=1;strokeColor=none;fillColor=none;align=center;verticalAlign=middle;whiteSpace=wrap;rounded=0;fontSize=11;" vertex="1" parent="mE1LJT338FbpaoRDe8dP-10">
          <mxGeometry x="10" y="260.6666666666667" width="90" height="68" as="geometry" />
        </mxCell>
        <mxCell id="mE1LJT338FbpaoRDe8dP-143" value="Send connected clients a list of active lobbies" style="text;html=1;strokeColor=none;fillColor=none;align=center;verticalAlign=middle;whiteSpace=wrap;rounded=0;fontSize=11;" vertex="1" parent="mE1LJT338FbpaoRDe8dP-10">
          <mxGeometry x="120" y="260.6666666666667" width="90" height="68" as="geometry" />
        </mxCell>
        <mxCell id="ET-FOYwZOfEWecPwwmMv-6" value="" style="verticalLabelPosition=bottom;html=1;verticalAlign=top;align=center;strokeColor=none;fillColor=#00BEF2;shape=mxgraph.azure.load_balancer_generic;pointerEvents=1;labelBackgroundColor=white;rotation=270;recursiveResize=1;treeFolding=0;gradientColor=none;" parent="ET-FOYwZOfEWecPwwmMv-4" vertex="1">
          <mxGeometry x="763.75" y="310.25" width="71.25" height="95" as="geometry" />
        </mxCell>
        <mxCell id="mE1LJT338FbpaoRDe8dP-20" value="Top-Tier Network" style="text;html=1;strokeColor=none;fillColor=none;align=center;verticalAlign=middle;whiteSpace=wrap;rounded=0;labelBackgroundColor=white;fontStyle=1;fontSize=20;" vertex="1" parent="ET-FOYwZOfEWecPwwmMv-4">
          <mxGeometry x="710" y="-290" width="930" height="60" as="geometry" />
        </mxCell>
        <mxCell id="mE1LJT338FbpaoRDe8dP-28" value="" style="shape=mxgraph.gcp.compute.container_registry;html=1;fillColor=#4387FD;gradientColor=#4683EA;strokeColor=none;verticalLabelPosition=bottom;verticalAlign=top;align=center;" vertex="1" parent="ET-FOYwZOfEWecPwwmMv-4">
          <mxGeometry x="852.5" y="-145.25" width="71.92" height="63" as="geometry" />
        </mxCell>
        <mxCell id="mE1LJT338FbpaoRDe8dP-29" value="&lt;font style=&quot;font-size: 11px&quot;&gt;&lt;b&gt;Container Registry&lt;/b&gt;&lt;/font&gt;" style="text;html=1;align=center;verticalAlign=middle;resizable=0;points=[];autosize=1;" vertex="1" parent="ET-FOYwZOfEWecPwwmMv-4">
          <mxGeometry x="835" y="-77.5" width="110" height="20" as="geometry" />
        </mxCell>
        <mxCell id="mE1LJT338FbpaoRDe8dP-30" value="" style="endArrow=classic;html=1;dashed=1;" edge="1" parent="ET-FOYwZOfEWecPwwmMv-4">
          <mxGeometry width="50" height="50" relative="1" as="geometry">
            <mxPoint x="1000" y="-115" as="sourcePoint" />
            <mxPoint x="930" y="-115" as="targetPoint" />
          </mxGeometry>
        </mxCell>
        <mxCell id="mE1LJT338FbpaoRDe8dP-31" value="" style="endArrow=classic;html=1;dashed=1;" edge="1" parent="ET-FOYwZOfEWecPwwmMv-4">
          <mxGeometry width="50" height="50" relative="1" as="geometry">
            <mxPoint x="840" y="-114" as="sourcePoint" />
            <mxPoint x="670" y="-114" as="targetPoint" />
          </mxGeometry>
        </mxCell>
        <mxCell id="mE1LJT338FbpaoRDe8dP-32" value="&lt;font style=&quot;font-size: 14px&quot;&gt;&lt;b&gt;Deployment Pipeline&lt;/b&gt;&lt;/font&gt;" style="text;html=1;strokeColor=none;fillColor=none;align=center;verticalAlign=middle;whiteSpace=wrap;rounded=0;" vertex="1" parent="ET-FOYwZOfEWecPwwmMv-4">
          <mxGeometry x="570" y="-190" width="430" height="20" as="geometry" />
        </mxCell>
        <mxCell id="mE1LJT338FbpaoRDe8dP-35" value="" style="endArrow=none;html=1;dashed=1;entryX=0.545;entryY=-0.084;entryDx=0;entryDy=0;entryPerimeter=0;endFill=0;" edge="1" parent="ET-FOYwZOfEWecPwwmMv-4" target="mE1LJT338FbpaoRDe8dP-12">
          <mxGeometry width="50" height="50" relative="1" as="geometry">
            <mxPoint x="620" y="-30" as="sourcePoint" />
            <mxPoint x="620" y="220" as="targetPoint" />
          </mxGeometry>
        </mxCell>
        <mxCell id="mE1LJT338FbpaoRDe8dP-36" value="" style="endArrow=none;html=1;dashed=1;entryX=0.5;entryY=0;entryDx=0;entryDy=0;edgeStyle=orthogonalEdgeStyle;rounded=0;endFill=0;" edge="1" parent="ET-FOYwZOfEWecPwwmMv-4" target="ET-FOYwZOfEWecPwwmMv-3">
          <mxGeometry width="50" height="50" relative="1" as="geometry">
            <mxPoint x="888.04" y="-30.000000000000227" as="sourcePoint" />
            <mxPoint x="888" y="90" as="targetPoint" />
          </mxGeometry>
        </mxCell>
        <mxCell id="mE1LJT338FbpaoRDe8dP-144" value="" style="endArrow=classic;startArrow=classic;html=1;dashed=1;fontSize=11;edgeStyle=orthogonalEdgeStyle;rounded=0;" edge="1" parent="ET-FOYwZOfEWecPwwmMv-4" target="ET-FOYwZOfEWecPwwmMv-17">
          <mxGeometry width="50" height="50" relative="1" as="geometry">
            <mxPoint x="610" y="580" as="sourcePoint" />
            <mxPoint x="1520" y="450" as="targetPoint" />
            <Array as="points">
              <mxPoint x="610" y="705" />
              <mxPoint x="1535" y="705" />
            </Array>
          </mxGeometry>
        </mxCell>
        <mxCell id="mE1LJT338FbpaoRDe8dP-147" value="" style="endArrow=classic;startArrow=classic;html=1;strokeColor=#001E26;strokeWidth=1;fontSize=11;dashed=1;" edge="1" parent="ET-FOYwZOfEWecPwwmMv-4">
          <mxGeometry width="50" height="50" relative="1" as="geometry">
            <mxPoint x="1235" y="380" as="sourcePoint" />
            <mxPoint x="1480" y="380" as="targetPoint" />
          </mxGeometry>
        </mxCell>
        <mxCell id="mE1LJT338FbpaoRDe8dP-148" value="" style="verticalLabelPosition=bottom;html=1;verticalAlign=top;align=center;strokeColor=none;fillColor=#00BEF2;shape=mxgraph.azure.virtual_network;pointerEvents=1;fontSize=11;" vertex="1" parent="ET-FOYwZOfEWecPwwmMv-4">
          <mxGeometry x="1040" y="669" width="50" height="27.500000000000004" as="geometry" />
        </mxCell>
        <mxCell id="mE1LJT338FbpaoRDe8dP-150" value="" style="verticalLabelPosition=bottom;html=1;verticalAlign=top;align=center;strokeColor=none;fillColor=#00BEF2;shape=mxgraph.azure.virtual_network;pointerEvents=1;fontSize=11;" vertex="1" parent="ET-FOYwZOfEWecPwwmMv-4">
          <mxGeometry x="1340" y="344" width="50" height="27.500000000000004" as="geometry" />
        </mxCell>
        <mxCell id="mE1LJT338FbpaoRDe8dP-152" value="" style="verticalLabelPosition=bottom;html=1;verticalAlign=top;align=center;strokeColor=none;fillColor=#00BEF2;shape=mxgraph.azure.virtual_network;pointerEvents=1;fontSize=11;" vertex="1" parent="ET-FOYwZOfEWecPwwmMv-4">
          <mxGeometry x="1440" y="-135" width="50" height="27.500000000000004" as="geometry" />
        </mxCell>
        <mxCell id="mE1LJT338FbpaoRDe8dP-192" value="" style="group" vertex="1" connectable="0" parent="ET-FOYwZOfEWecPwwmMv-4">
          <mxGeometry x="902" y="170" width="298" height="120" as="geometry" />
        </mxCell>
        <mxCell id="mE1LJT338FbpaoRDe8dP-168" value="" style="rounded=1;whiteSpace=wrap;html=1;labelBackgroundColor=white;fillColor=#FFFFFF;gradientColor=none;" vertex="1" parent="mE1LJT338FbpaoRDe8dP-192">
          <mxGeometry width="298" height="120" as="geometry" />
        </mxCell>
        <mxCell id="mE1LJT338FbpaoRDe8dP-189" value="Lobby Container" style="text;html=1;strokeColor=none;fillColor=none;align=center;verticalAlign=middle;whiteSpace=wrap;rounded=0;labelBackgroundColor=white;" vertex="1" parent="mE1LJT338FbpaoRDe8dP-192">
          <mxGeometry x="8" width="280" height="30" as="geometry" />
        </mxCell>
        <mxCell id="mE1LJT338FbpaoRDe8dP-190" value="" style="endArrow=none;html=1;strokeColor=#001E26;strokeWidth=1;fontSize=11;exitX=0;exitY=1;exitDx=0;exitDy=0;entryX=1;entryY=1;entryDx=0;entryDy=0;" edge="1" parent="mE1LJT338FbpaoRDe8dP-192" source="mE1LJT338FbpaoRDe8dP-189" target="mE1LJT338FbpaoRDe8dP-189">
          <mxGeometry width="50" height="50" relative="1" as="geometry">
            <mxPoint x="920" y="270" as="sourcePoint" />
            <mxPoint x="970" y="220" as="targetPoint" />
          </mxGeometry>
        </mxCell>
        <mxCell id="mE1LJT338FbpaoRDe8dP-193" value="" style="group" vertex="1" connectable="0" parent="ET-FOYwZOfEWecPwwmMv-4">
          <mxGeometry x="900" y="390" width="298" height="120" as="geometry" />
        </mxCell>
        <mxCell id="mE1LJT338FbpaoRDe8dP-194" value="" style="rounded=1;whiteSpace=wrap;html=1;labelBackgroundColor=white;fillColor=#FFFFFF;gradientColor=none;" vertex="1" parent="mE1LJT338FbpaoRDe8dP-193">
          <mxGeometry width="298" height="120" as="geometry" />
        </mxCell>
        <mxCell id="mE1LJT338FbpaoRDe8dP-195" value="Game Container" style="text;html=1;strokeColor=none;fillColor=none;align=center;verticalAlign=middle;whiteSpace=wrap;rounded=0;labelBackgroundColor=white;" vertex="1" parent="mE1LJT338FbpaoRDe8dP-193">
          <mxGeometry x="8" width="280" height="30" as="geometry" />
        </mxCell>
        <mxCell id="mE1LJT338FbpaoRDe8dP-196" value="" style="endArrow=none;html=1;strokeColor=#001E26;strokeWidth=1;fontSize=11;exitX=0;exitY=1;exitDx=0;exitDy=0;entryX=1;entryY=1;entryDx=0;entryDy=0;" edge="1" parent="mE1LJT338FbpaoRDe8dP-193" source="mE1LJT338FbpaoRDe8dP-195" target="mE1LJT338FbpaoRDe8dP-195">
          <mxGeometry width="50" height="50" relative="1" as="geometry">
            <mxPoint x="920" y="270" as="sourcePoint" />
            <mxPoint x="970" y="220" as="targetPoint" />
          </mxGeometry>
        </mxCell>
        <mxCell id="ET-FOYwZOfEWecPwwmMv-29" value="Lines" parent="0" />
        <mxCell id="ET-FOYwZOfEWecPwwmMv-31" value="" style="endArrow=classic;html=1;fontSize=11;" parent="ET-FOYwZOfEWecPwwmMv-29" edge="1">
          <mxGeometry width="50" height="50" relative="1" as="geometry">
            <mxPoint x="1080" y="-110" as="sourcePoint" />
            <mxPoint x="1150" y="-110" as="targetPoint" />
          </mxGeometry>
        </mxCell>
        <mxCell id="ET-FOYwZOfEWecPwwmMv-32" value="" style="endArrow=classic;html=1;fontSize=11;" parent="ET-FOYwZOfEWecPwwmMv-29" edge="1">
          <mxGeometry width="50" height="50" relative="1" as="geometry">
            <mxPoint x="1150" y="-100" as="sourcePoint" />
            <mxPoint x="1080" y="-100" as="targetPoint" />
          </mxGeometry>
        </mxCell>
        <mxCell id="ET-FOYwZOfEWecPwwmMv-35" value="" style="shape=umlActor;verticalLabelPosition=bottom;labelBackgroundColor=#ffffff;verticalAlign=top;html=1;outlineConnect=0;fontSize=11;" parent="ET-FOYwZOfEWecPwwmMv-29" vertex="1">
          <mxGeometry x="70" y="280" width="35" height="70" as="geometry" />
        </mxCell>
        <mxCell id="ET-FOYwZOfEWecPwwmMv-43" value="" style="shape=umlActor;verticalLabelPosition=bottom;labelBackgroundColor=#ffffff;verticalAlign=top;html=1;outlineConnect=0;fontSize=11;" parent="ET-FOYwZOfEWecPwwmMv-29" vertex="1">
          <mxGeometry x="30" y="330" width="35" height="70" as="geometry" />
        </mxCell>
        <mxCell id="ET-FOYwZOfEWecPwwmMv-44" value="" style="shape=umlActor;verticalLabelPosition=bottom;labelBackgroundColor=#ffffff;verticalAlign=top;html=1;outlineConnect=0;fontSize=11;" parent="ET-FOYwZOfEWecPwwmMv-29" vertex="1">
          <mxGeometry x="70" y="360" width="35" height="70" as="geometry" />
        </mxCell>
        <mxCell id="ET-FOYwZOfEWecPwwmMv-48" value="Clients" style="text;html=1;strokeColor=none;fillColor=none;align=center;verticalAlign=middle;whiteSpace=wrap;rounded=0;labelBackgroundColor=none;fontSize=11;" parent="ET-FOYwZOfEWecPwwmMv-29" vertex="1">
          <mxGeometry x="35" y="440" width="55" height="20" as="geometry" />
        </mxCell>
        <mxCell id="ET-FOYwZOfEWecPwwmMv-49" value="" style="outlineConnect=0;dashed=0;verticalLabelPosition=bottom;verticalAlign=top;align=center;html=1;shape=mxgraph.aws3.internet_2;fillColor=#D2D3D3;gradientColor=none;labelBackgroundColor=none;fontSize=11;" parent="ET-FOYwZOfEWecPwwmMv-29" vertex="1">
          <mxGeometry x="175.5" y="306" width="79.5" height="54" as="geometry" />
        </mxCell>
        <mxCell id="ET-FOYwZOfEWecPwwmMv-50" value="Internet" style="text;html=1;strokeColor=none;fillColor=none;align=center;verticalAlign=middle;whiteSpace=wrap;rounded=0;labelBackgroundColor=none;fontSize=11;" parent="ET-FOYwZOfEWecPwwmMv-29" vertex="1">
          <mxGeometry x="190" y="380" width="50.5" height="20" as="geometry" />
        </mxCell>
        <mxCell id="mE1LJT338FbpaoRDe8dP-6" value="" style="endArrow=classic;html=1;" edge="1" parent="ET-FOYwZOfEWecPwwmMv-29">
          <mxGeometry width="50" height="50" relative="1" as="geometry">
            <mxPoint x="120" y="370" as="sourcePoint" />
            <mxPoint x="300" y="370" as="targetPoint" />
          </mxGeometry>
        </mxCell>
        <mxCell id="mE1LJT338FbpaoRDe8dP-21" value="" style="endArrow=classic;html=1;dashed=1;edgeStyle=orthogonalEdgeStyle;rounded=0;entryX=1;entryY=0.5;entryDx=0;entryDy=0;exitX=0.5;exitY=0;exitDx=0;exitDy=0;startArrow=none;startFill=0;" edge="1" parent="ET-FOYwZOfEWecPwwmMv-29" source="ET-FOYwZOfEWecPwwmMv-16" target="ET-FOYwZOfEWecPwwmMv-19">
          <mxGeometry width="50" height="50" relative="1" as="geometry">
            <mxPoint x="1500" y="20" as="sourcePoint" />
            <mxPoint x="1550" y="-30" as="targetPoint" />
          </mxGeometry>
        </mxCell>
        <mxCell id="mE1LJT338FbpaoRDe8dP-133" value="Untitled Layer" parent="0" />
      </root>
    </mxGraphModel>
  </diagram>
</mxfile>
